<svg xmlns="http://www.w3.org/2000/svg" viewBox="0 0 97.81 113.25"><title>Asset 66todoapp</title><g id="Layer_2" data-name="Layer 2"><g id="Layer_2-2" data-name="Layer 2"><path d="M63.88,25.9c1.56,1.53,2.16,2.16,4.85,4.81,0,0-26,25.82-37.39,37.37-4.11,4.16-4.4,9-.84,12.59s8.57,3.4,12.67-.67c14.2-14.1,28.39-28.2,42.42-42.46a17.39,17.39,0,0,0,.31-24.68C79.12,5.79,68.15,5.11,61,12.11,45.2,27.46,29.52,42.91,14.35,58.84c-10.48,11-9.49,28.72,1.22,39,11.37,10.91,28.6,10.84,40.19-.42C66,87.49,76,77.29,86,67.21c2.47-2.47,4.91-4.95,7.7-7.76,0,.26,4,5.26,4,5.26s-26.15,26.84-37.61,38c-10,9.7-21.95,13-35.18,8.62C11.45,106.84,3,97.2.55,83A32.43,32.43,0,0,1,9.66,53.69Q32.75,30.11,56.35,7C65-1.4,76.5-2.16,86.25,4.27c9.55,6.3,14,18.2,10.2,28.5a26.6,26.6,0,0,1-5.63,9.15c-14.21,14.61-28.62,29-43,43.41-5.62,5.6-13.31,6.46-19.53,2.51a15.2,15.2,0,0,1-6.42-18,14.14,14.14,0,0,1,3-5.11C37.7,51.84,50.67,39,63.88,25.9Z"/></g></g></svg>