<svg xmlns="http://www.w3.org/2000/svg" viewBox="0 0 104 120"><defs><style>.cls-1{fill:#1e2f52;}.cls-2{fill:#fff;}</style></defs><title>Asset 127todoapp1</title><g id="Layer_2" data-name="Layer 2"><g id="Layer_2-2" data-name="Layer 2"><path class="cls-1" d="M104,13.35v3.3A5.37,5.37,0,0,1,98.65,22H5.35A5.37,5.37,0,0,1,0,16.65v-3.3A5.37,5.37,0,0,1,5.35,8H30a8.44,8.44,0,0,1,8.4-8H65.59A8.44,8.44,0,0,1,74,8H98.65A5.37,5.37,0,0,1,104,13.35Z"/><path class="cls-1" d="M7.22,30,11,106.36A13.68,13.68,0,0,0,24.64,120H78.36A13.68,13.68,0,0,0,92,106.36L96.73,30Z"/><rect class="cls-2" x="46.32" y="47.78" width="11.31" height="54.45" rx="5.66" transform="translate(-37.81 58.72) rotate(-45)"/><rect class="cls-2" x="46.32" y="47.78" width="11.31" height="54.45" rx="5.66" transform="translate(68.26 -14.78) rotate(45)"/></g></g></svg>