<svg xmlns="http://www.w3.org/2000/svg" xmlns:xlink="http://www.w3.org/1999/xlink" viewBox="0 0 110.02 96.71"><defs><style>.cls-1{fill:url(#linear-gradient);}</style><linearGradient id="linear-gradient" x1="13.91" y1="-0.75" x2="98.06" y2="70.13" gradientUnits="userSpaceOnUse"><stop offset="0" stop-color="#ff0d0d"/><stop offset="1" stop-color="#fc004e"/></linearGradient></defs><title>Asset 122todoapp</title><g id="Layer_2" data-name="Layer 2"><g id="Layer_2-2" data-name="Layer 2"><path class="cls-1" d="M100.66,52.76l-2.39,2.4L57.91,95.52a4,4,0,0,1-5.74,0L11.8,55.16,9.25,52.61c-11.8-11.81-12.5-31.06-1-43.15A30.44,30.44,0,0,1,30.41,0C38.25,0,46.08,5,52,10.91l1.22,1.22a2.54,2.54,0,0,0,3.59,0l1.22-1.22C71.32-2.35,94-3.3,105.1,13.63,113.16,26,111.08,42.35,100.66,52.76Z"/></g></g></svg>