<svg xmlns="http://www.w3.org/2000/svg" viewBox="0 0 105.14 119.5"><defs><style>.cls-1,.cls-2{fill:none;stroke:#06080c;stroke-linecap:round;stroke-miterlimit:10;}.cls-1{stroke-width:7px;}.cls-2{stroke-width:6px;}</style></defs><title>Asset 47todoapp</title><g id="Layer_2" data-name="Layer 2"><g id="Layer_2-2" data-name="Layer 2"><path class="cls-1" d="M52.57,93.5H11.64s-4,0-6-1-4-7,1-11c4.55-3.64,12-15,12-23,0-3.33.81-8,.81-16.63,0-12.37,11.12-30.37,33.12-30.37s33.12,18,33.12,30.37c0,8.63.81,13.3.81,16.63,0,8,7.45,19.36,12,23,5,4,3,10,1,11s-6,1-6,1Z"/><path class="cls-2" d="M41.5,108.5s11,18,22,0"/><line class="cls-1" x1="52.5" y1="3.5" x2="52.5" y2="11.5"/></g></g></svg>