<svg xmlns="http://www.w3.org/2000/svg" viewBox="0 0 107.86 113"><defs><style>.cls-1{fill:#06080c;}.cls-2{fill:#eaeaea;}</style></defs><title>Asset 91todoapp</title><g id="Layer_2" data-name="Layer 2"><g id="Layer_2-2" data-name="Layer 2"><path class="cls-1" d="M94.43,56.5A42.21,42.21,0,0,0,94,50.19l13.91-13.28-10-17.32L79.61,24.94a41.29,41.29,0,0,0-11.23-6.63L63.93,0h-20L39.58,17.9a40.76,40.76,0,0,0-12,6.8L10,19.59,0,36.91l13,12.5a41.39,41.39,0,0,0,0,14.16L0,76.09,10,93.41l17.57-5.09a41.1,41.1,0,0,0,12,6.78L43.93,113h20l4.45-18.31A41.06,41.06,0,0,0,79.66,88l18.2,5.4,10-17.32L93.94,62.88A41.93,41.93,0,0,0,94.43,56.5Z"/><circle class="cls-2" cx="53.43" cy="56.5" r="26"/></g></g></svg>