<svg xmlns="http://www.w3.org/2000/svg" viewBox="0 0 452 466.93"><defs><style>.cls-1{isolation:isolate;}.cls-2{fill:#f0f2f5;}.cls-3{fill:#fff;}.cls-4{fill:#e1e6eb;}.cls-5{fill:#1f4168;}.cls-6{fill:#f9a21b;}.cls-7{fill:#ffc89f;}.cls-8{fill:#ff9a6c;}.cls-9{fill:#1b1b2f;}.cls-10{fill:#e43f5a;}.cls-11{fill:#1b1a2e;}.cls-12{opacity:0.4;mix-blend-mode:multiply;}.cls-13{fill:#a65b3c;}</style></defs><title>Asset 126todoapp</title><g class="cls-1"><g id="Layer_2" data-name="Layer 2"><g id="Layer_1-2" data-name="Layer 1"><path class="cls-2" d="M247.84,88.49V69.24a6.09,6.09,0,0,0-6.09-6.09H235A6.08,6.08,0,0,1,229.25,59a62.7,62.7,0,0,0-3.58-8.71,6.05,6.05,0,0,1,1.14-7l4.74-4.74a6.1,6.1,0,0,0,0-8.61L217.93,16.29a6.09,6.09,0,0,0-8.6,0L204.67,21a6.08,6.08,0,0,1-7,1.13,64.52,64.52,0,0,0-8.78-3.67,6.05,6.05,0,0,1-4.15-5.76V6.09A6.09,6.09,0,0,0,178.6,0H159.35a6.09,6.09,0,0,0-6.09,6.09v6.56a6.05,6.05,0,0,1-4.15,5.76,64.52,64.52,0,0,0-8.78,3.67A6.08,6.08,0,0,1,133.28,21l-4.66-4.66a6.09,6.09,0,0,0-8.6,0L106.4,29.9a6.1,6.1,0,0,0,0,8.61l4.75,4.74a6.08,6.08,0,0,1,1.14,7A61.55,61.55,0,0,0,108.7,59a6.07,6.07,0,0,1-5.78,4.17H96.2a6.09,6.09,0,0,0-6.09,6.09V88.49a6.09,6.09,0,0,0,6.09,6.08h6.88a6.08,6.08,0,0,1,5.77,4.14,63,63,0,0,0,3.58,8.55,6.08,6.08,0,0,1-1.12,7l-4.91,4.9a6.1,6.1,0,0,0,0,8.61L120,141.43a6.07,6.07,0,0,0,8.6,0l5-5a6.08,6.08,0,0,1,7-1.14,62.49,62.49,0,0,0,8.48,3.51,6.09,6.09,0,0,1,4.15,5.77v7a6.09,6.09,0,0,0,6.09,6.08H178.6a6.09,6.09,0,0,0,6.09-6.08v-7a6.09,6.09,0,0,1,4.15-5.77,62.49,62.49,0,0,0,8.48-3.51,6.08,6.08,0,0,1,7,1.14l5,5a6.07,6.07,0,0,0,8.6,0l13.62-13.61a6.1,6.1,0,0,0,0-8.61l-4.91-4.9a6.08,6.08,0,0,1-1.12-7,64.32,64.32,0,0,0,3.59-8.55,6.06,6.06,0,0,1,5.76-4.14h6.88A6.09,6.09,0,0,0,247.84,88.49ZM169,103a24.36,24.36,0,1,1,24.36-24.36A24.39,24.39,0,0,1,169,103Z"/><path class="cls-2" d="M101,156.76V144.43a3.9,3.9,0,0,0-3.9-3.89h-4.3a3.89,3.89,0,0,1-3.7-2.67,41.35,41.35,0,0,0-2.29-5.58,3.86,3.86,0,0,1,.73-4.49l3-3a3.9,3.9,0,0,0,0-5.51l-8.71-8.72a3.9,3.9,0,0,0-5.51,0l-3,3a3.89,3.89,0,0,1-4.51.73,39.66,39.66,0,0,0-5.62-2.35,3.89,3.89,0,0,1-2.66-3.69V104a3.9,3.9,0,0,0-3.89-3.9H44.32a3.9,3.9,0,0,0-3.89,3.9v4.2a3.89,3.89,0,0,1-2.66,3.69,39.66,39.66,0,0,0-5.62,2.35,3.89,3.89,0,0,1-4.51-.73l-3-3a3.9,3.9,0,0,0-5.51,0l-8.71,8.72a3.89,3.89,0,0,0,0,5.5l3,3a3.86,3.86,0,0,1,.73,4.49,41.35,41.35,0,0,0-2.29,5.58,3.89,3.89,0,0,1-3.7,2.67H3.9A3.89,3.89,0,0,0,0,144.43v12.33a3.89,3.89,0,0,0,3.9,3.89H8.3A3.9,3.9,0,0,1,12,163.3a38.77,38.77,0,0,0,2.3,5.47,3.9,3.9,0,0,1-.72,4.52l-3.14,3.14a3.9,3.9,0,0,0,0,5.51l8.71,8.71a3.9,3.9,0,0,0,5.51,0l3.19-3.19a3.91,3.91,0,0,1,4.5-.73A39.25,39.25,0,0,0,37.77,189a3.89,3.89,0,0,1,2.66,3.69v4.52a3.89,3.89,0,0,0,3.89,3.89H56.65a3.89,3.89,0,0,0,3.89-3.89v-4.52A3.89,3.89,0,0,1,63.2,189a39.25,39.25,0,0,0,5.43-2.25,3.91,3.91,0,0,1,4.5.73l3.19,3.19a3.9,3.9,0,0,0,5.51,0l8.71-8.71a3.9,3.9,0,0,0,0-5.51l-3.14-3.14a3.9,3.9,0,0,1-.72-4.52A40,40,0,0,0,89,163.3a3.9,3.9,0,0,1,3.69-2.65h4.4A3.9,3.9,0,0,0,101,156.76ZM50.48,166a15.6,15.6,0,1,1,15.6-15.6A15.61,15.61,0,0,1,50.48,166Z"/><rect class="cls-2" x="179.36" y="90.48" width="272.64" height="350.56" rx="7.73"/><path class="cls-3" d="M441.61,86.59V421.68a7.73,7.73,0,0,1-7.73,7.74H176.71a7.73,7.73,0,0,1-7.73-7.74V86.59a7.73,7.73,0,0,1,7.73-7.73H433.88A7.73,7.73,0,0,1,441.61,86.59Z"/><path class="cls-4" d="M441.61,86.59v22.15H169V86.59a7.73,7.73,0,0,1,7.73-7.73H433.88A7.73,7.73,0,0,1,441.61,86.59Z"/><path class="cls-5" d="M433.88,429.56H176.71a7.88,7.88,0,0,1-7.87-7.87V86.59a7.88,7.88,0,0,1,7.87-7.87H433.88a7.88,7.88,0,0,1,7.87,7.87v335.1A7.88,7.88,0,0,1,433.88,429.56ZM176.71,79a7.61,7.61,0,0,0-7.6,7.59v335.1a7.61,7.61,0,0,0,7.6,7.59H433.88a7.61,7.61,0,0,0,7.6-7.59V86.59a7.61,7.61,0,0,0-7.6-7.59Z"/><path class="cls-5" d="M441.61,108v.72H169V86.59a7.73,7.73,0,0,1,7.73-7.73h214.5A3.82,3.82,0,0,1,395,82.68V105a3,3,0,0,0,3,3Z"/><path class="cls-5" d="M426,88.48l-2.12-2.11a1.35,1.35,0,0,0-1.91,0l-3.4,3.4-3.4-3.4a1.35,1.35,0,0,0-1.91,0l-2.12,2.11a1.36,1.36,0,0,0,0,1.92l3.4,3.4-3.4,3.4a1.35,1.35,0,0,0,0,1.91l2.12,2.12a1.35,1.35,0,0,0,1.91,0l3.4-3.4,3.4,3.4a1.35,1.35,0,0,0,1.91,0L426,99.11a1.35,1.35,0,0,0,0-1.91l-3.4-3.4,3.4-3.4A1.36,1.36,0,0,0,426,88.48Z"/><rect class="cls-3" x="179.13" y="89.9" width="74.26" height="7.92" rx="2.4"/><rect class="cls-6" x="378.03" y="141.82" width="41.15" height="41.15" rx="3.98" transform="translate(797.21 324.78) rotate(180)"/><rect class="cls-2" x="191.41" y="141.82" width="162.37" height="14.74" rx="4.1" transform="translate(545.19 298.37) rotate(180)"/><rect class="cls-4" x="241.98" y="168.23" width="111.79" height="14.74" rx="4.1" transform="translate(595.76 351.2) rotate(180)"/><path class="cls-3" d="M394.72,171.67l-8.21-8.24a1.31,1.31,0,0,1,0-1.85l2.62-2.63a1.31,1.31,0,0,1,1.86,0l4.65,4.68,10.59-10.53a1.31,1.31,0,0,1,1.85,0l2.63,2.63a1.31,1.31,0,0,1,0,1.85l-14.14,14.08A1.31,1.31,0,0,1,394.72,171.67Z"/><rect class="cls-6" x="378.03" y="212.94" width="41.15" height="41.15" rx="3.98" transform="translate(797.21 467.03) rotate(180)"/><rect class="cls-2" x="191.41" y="212.94" width="162.37" height="14.74" rx="4.1" transform="translate(545.19 440.62) rotate(180)"/><rect class="cls-4" x="241.98" y="239.35" width="111.79" height="14.74" rx="4.1" transform="translate(595.76 493.45) rotate(180)"/><path class="cls-3" d="M394.72,242.79l-8.21-8.24a1.31,1.31,0,0,1,0-1.85l2.62-2.62a1.32,1.32,0,0,1,1.86,0l4.65,4.69,10.59-10.54a1.32,1.32,0,0,1,1.85,0l2.63,2.62a1.32,1.32,0,0,1,0,1.86L396.57,242.8A1.31,1.31,0,0,1,394.72,242.79Z"/><rect class="cls-6" x="378.03" y="284.07" width="41.15" height="41.15" rx="3.98" transform="translate(797.21 609.28) rotate(180)"/><rect class="cls-2" x="191.41" y="284.07" width="162.37" height="14.74" rx="4.1" transform="translate(545.19 582.87) rotate(180)"/><rect class="cls-4" x="241.98" y="310.48" width="111.79" height="14.74" rx="4.1" transform="translate(595.76 635.69) rotate(180)"/><path class="cls-3" d="M394.72,313.92l-8.21-8.24a1.31,1.31,0,0,1,0-1.85l2.62-2.63a1.31,1.31,0,0,1,1.86,0l4.65,4.68,10.59-10.53a1.31,1.31,0,0,1,1.85,0l2.63,2.63a1.31,1.31,0,0,1,0,1.85l-14.14,14.08A1.31,1.31,0,0,1,394.72,313.92Z"/><rect class="cls-6" x="378.03" y="355.19" width="41.15" height="41.15" rx="3.98" transform="translate(797.21 751.53) rotate(180)"/><rect class="cls-2" x="191.41" y="355.19" width="162.37" height="14.74" rx="4.1" transform="translate(545.19 725.12) rotate(180)"/><rect class="cls-4" x="241.98" y="381.6" width="111.79" height="14.74" rx="4.1" transform="translate(595.76 777.94) rotate(180)"/><path class="cls-3" d="M394.72,385l-8.21-8.24a1.31,1.31,0,0,1,0-1.85l2.62-2.62a1.31,1.31,0,0,1,1.86,0l4.65,4.68,10.59-10.53a1.31,1.31,0,0,1,1.85,0l2.63,2.62a1.31,1.31,0,0,1,0,1.85L396.57,385A1.31,1.31,0,0,1,394.72,385Z"/><path class="cls-6" d="M307.86,354.86l-3.39,76.59a24.91,24.91,0,0,1-14.37,21.48v13.59H179.26l3.65-73.78-3.15-24L134,353.5a23,23,0,0,1-9.34-5.93L69.29,289.48l23.49-25.21,50.75,47.84,40.23,7.22L216,318.09l.8-1.95a7.42,7.42,0,0,1,6.16-4.55l45.4-4.42a4.48,4.48,0,0,1,4.51,2.6l1.62,3.57,15.16,8.58A36,36,0,0,1,307.86,354.86Z"/><path class="cls-7" d="M224,281.41v36.43a42.81,42.81,0,0,0,2.68,14.9l2.85,7.66,8.33-11.57a16.89,16.89,0,0,1,6.23-5.3l20.6-10.23V281.41Z"/><rect class="cls-7" x="210.89" y="222.56" width="54.19" height="87.29" rx="27.1" transform="translate(475.97 532.42) rotate(-180)"/><path class="cls-8" d="M224,306v5.48a29,29,0,0,0,13-3.17A17.51,17.51,0,0,1,224,306Z"/><circle class="cls-9" cx="222.43" cy="262.83" r="2.44"/><path class="cls-9" d="M216.43,259.06a7.24,7.24,0,0,1,5-2,1.93,1.93,0,0,1,.34,0l.35,0,.34,0a1.86,1.86,0,0,1,.34.07l.68.16.64.25.32.12.31.16.61.32c.38.25.75.52,1.12.79-.41-.21-.79-.46-1.19-.66l-.62-.28-.3-.14-.32-.11-.64-.21-.66-.14-.33-.06-.33,0a3.71,3.71,0,0,0-.67,0,7.39,7.39,0,0,0-2.63.41l-.63.24-.6.3A6.52,6.52,0,0,0,216.43,259.06Z"/><circle class="cls-9" cx="248.03" cy="262.83" r="2.44"/><path class="cls-9" d="M242,259.06a7.2,7.2,0,0,1,5-2,1.93,1.93,0,0,1,.34,0l.35,0,.34,0a1.86,1.86,0,0,1,.34.07l.67.16.65.25.32.12.31.16.6.32c.39.25.76.52,1.12.79-.4-.21-.78-.46-1.18-.66l-.62-.28L250,258l-.32-.11-.64-.21-.65-.14-.33-.06-.33,0a3.82,3.82,0,0,0-.67,0,7.39,7.39,0,0,0-2.63.41l-.63.24c-.2.09-.41.19-.61.3A6.83,6.83,0,0,0,242,259.06Z"/><path class="cls-9" d="M231.36,270.68c-.09,1.06-.21,2.1-.34,3.15s-.26,2.1-.41,3.14a7.42,7.42,0,0,0-.12,1.55,4.45,4.45,0,0,0,.35,1.48,2.55,2.55,0,0,0,.94,1.18l1.33.86c-.47-.23-.93-.49-1.4-.74a2.76,2.76,0,0,1-1.07-1.2,4.52,4.52,0,0,1-.42-1.57,7.1,7.1,0,0,1,.11-1.6c.15-1,.3-2.09.48-3.13S231.15,271.72,231.36,270.68Z"/><path class="cls-10" d="M240.17,285.69a5.21,5.21,0,0,1-.65,1.52,5.11,5.11,0,0,1-2.73,2.17,4.91,4.91,0,0,1-1.82.24,5.31,5.31,0,0,1-.89-.13,5.69,5.69,0,0,1-.82-.29A4.67,4.67,0,0,1,230.9,287c.59,0,1.12,0,1.61,0h.14c.4,0,.77,0,1.12,0s.4,0,.59,0l.55-.07a7.94,7.94,0,0,0,1-.24,9.53,9.53,0,0,0,2-1c.43-.27.86-.57,1.34-.91l0,0,1-.7A4.1,4.1,0,0,1,240.17,285.69Z"/><path class="cls-3" d="M239.22,284.78a4.83,4.83,0,0,1-.42,1,4.34,4.34,0,0,1-2.35,1.91,4.1,4.1,0,0,1-3.07-.19,3.61,3.61,0,0,1-.73-.46c.4,0,.77,0,1.12,0s.4,0,.59,0l.55-.07a7.94,7.94,0,0,0,1-.24,9.53,9.53,0,0,0,2-1C238.31,285.42,238.74,285.12,239.22,284.78Z"/><path class="cls-9" d="M216.43,252.26a3.77,3.77,0,0,1,.76-1.39,4.85,4.85,0,0,1,.56-.55l.31-.25a3.78,3.78,0,0,1,.33-.22,5.59,5.59,0,0,1,3.08-.83,4.25,4.25,0,0,1,.8.07l.4.06.39.11q.39.12.75.27c.24.12.47.26.69.39s.22.14.33.21l.3.25.55.54a4.09,4.09,0,0,1,.45.64,5.16,5.16,0,0,1,.37.7,9.67,9.67,0,0,1-1.5-.11q-.34,0-.66-.06L224,252l-.31,0a5.54,5.54,0,0,1-.6-.06l-.58,0-.28,0h-.82a22.2,22.2,0,0,0-2.27.08C218.35,252,217.5,252.13,216.43,252.26Z"/><path class="cls-9" d="M242,252.26a3.77,3.77,0,0,1,.76-1.39,4.85,4.85,0,0,1,.56-.55l.31-.25a3.78,3.78,0,0,1,.33-.22,5.58,5.58,0,0,1,3.07-.83,4.36,4.36,0,0,1,.81.07l.4.06.39.11c.25.08.51.17.75.27s.46.26.69.39.22.14.33.21a3.47,3.47,0,0,1,.29.25c.2.18.38.36.56.54a4.89,4.89,0,0,1,.45.64,4.2,4.2,0,0,1,.36.7,9.63,9.63,0,0,1-1.49-.11c-.23,0-.45,0-.67-.06l-.31-.05-.31,0a5.54,5.54,0,0,1-.6-.06l-.58,0-.28,0H247a22,22,0,0,0-2.26.08C243.94,252,243.1,252.13,242,252.26Z"/><path class="cls-11" d="M259.24,250.19l-.14-7.54a67.51,67.51,0,0,0-40.49-5.6s-4.06,5.81-4.7,15.39c0,0,4-.86,4.13-4.35,0,0,1.89.61,1.46,3.28,0,0,.72-1.14.18-3.85l1.17.72a3.28,3.28,0,0,1,1.58,2.79c0,7.27-10.82,9.13-15.44,6.52-10.56-.38-14.9-7.9-10-16.14-5.84-10.94,8-15,8-15-8.17-10.24-.65-23.47-.65-23.47a37.77,37.77,0,0,0,.11,7.84c-1.27-10.32,8.92-17.37,8.92-17.37,1.63,29.74,42.1,16.42,42.1,16.42,18.45,22.73,32.08,20.58,32.08,20.58a9.41,9.41,0,0,1-4.56,2.43l2,.5c11.08,22.29.87,36.73.87,36.73a68.18,68.18,0,0,0-.59-7.12c0,.19,0,.38,0,.57a19.52,19.52,0,0,1-9.74,16.88c-11.52,6.8-10.84,16.09-10.84,16.09l-.26-36L261.67,257A11.34,11.34,0,0,1,259.24,250.19Z"/><rect class="cls-7" x="261.28" y="262.61" width="11.49" height="19.08" rx="5.04" transform="translate(534.04 544.29) rotate(-180)"/><path class="cls-8" d="M265.47,265.6a4.28,4.28,0,0,1,1.47.09,4.35,4.35,0,0,1,1.38.6,4.65,4.65,0,0,1,1.87,2.36,4.89,4.89,0,0,1,.26,1.51c0,.5,0,1,0,1.46,0,1-.1,1.94-.22,2.9-.12-1-.18-1.93-.22-2.9,0-.48,0-1-.06-1.44a4.37,4.37,0,0,0-.26-1.34,4.31,4.31,0,0,0-.63-1.2,5,5,0,0,0-.95-1,5.38,5.38,0,0,0-1.21-.7A6.29,6.29,0,0,0,265.47,265.6Z"/><path class="cls-8" d="M267.34,275.92a2.17,2.17,0,0,1-.68-.56,2.92,2.92,0,0,1-.43-.77,2.86,2.86,0,0,1-.17-.87,2,2,0,0,1,.15-.87c.12.28.2.54.29.79l.27.75.28.74C267.15,275.38,267.25,275.63,267.34,275.92Z"/><path class="cls-5" d="M213.91,252.44a5.35,5.35,0,0,1-3.24-.13,4.87,4.87,0,0,1-1.42-.85,5.43,5.43,0,0,1-1.07-1.27,6.22,6.22,0,0,1-.9-3.17,7.61,7.61,0,0,1,.64-3.23,9.12,9.12,0,0,1,1.86-2.73,11.77,11.77,0,0,1,2.62-2,18.56,18.56,0,0,1,6.21-2c-.53.13-1.06.24-1.59.38s-1.05.28-1.55.48l-.77.28-.75.32-.37.17-.36.19c-.23.13-.48.24-.71.39a12.22,12.22,0,0,0-2.54,2,8.84,8.84,0,0,0-1.79,2.66,7.62,7.62,0,0,0-.65,3.12,6.33,6.33,0,0,0,.84,3.06,4.78,4.78,0,0,0,1,1.24,4.56,4.56,0,0,0,1.35.86A5.42,5.42,0,0,0,213.91,252.44Z"/><path class="cls-5" d="M206.9,250.37a7,7,0,0,0,1,1.89,8.87,8.87,0,0,0,1.51,1.55,9.19,9.19,0,0,0,3.82,1.91,6.06,6.06,0,0,0,2.12.1,4.52,4.52,0,0,0,1.95-.8,5,5,0,0,0,1.38-1.62,9,9,0,0,0,.77-2,8.05,8.05,0,0,1-.65,2.09,5,5,0,0,1-1.37,1.74,4.33,4.33,0,0,1-2,.87,6.14,6.14,0,0,1-2.22-.07,9.23,9.23,0,0,1-3.9-2A7.53,7.53,0,0,1,206.9,250.37Z"/><path class="cls-5" d="M197,241.41a19.25,19.25,0,0,1,3.56-4,22.55,22.55,0,0,1,4.47-3,22.06,22.06,0,0,1,5.09-1.81c.44-.08.88-.19,1.33-.24l.67-.1.67-.07a24.24,24.24,0,0,1,2.69-.08,27.11,27.11,0,0,0-5.31.7,24,24,0,0,0-7.32,3.19c-.75.5-1.46,1-2.15,1.6a24.12,24.12,0,0,0-2,1.82A21.18,21.18,0,0,0,197,241.41Z"/><path class="cls-5" d="M198.37,236.19a4.4,4.4,0,0,1,.94-1.47,7.28,7.28,0,0,1,.63-.61c.24-.17.47-.35.72-.51a9.52,9.52,0,0,1,3.27-1.25l.44-.09.43,0,.87-.1.88,0c.29,0,.58,0,.88,0,.58,0,1.16.06,1.74.13s1.15.17,1.72.27l-1.73-.13c-.58,0-1.16,0-1.74,0l-1.72.07-.86.11c-.14,0-.29,0-.43.06l-.42.09c-.28.06-.57.1-.84.18l-.82.26-.79.32c-.27.12-.51.27-.77.4s-.48.31-.71.47a5.81,5.81,0,0,0-.65.56A4.82,4.82,0,0,0,198.37,236.19Z"/><path class="cls-5" d="M205,226.45a13.64,13.64,0,0,1,3.54-.45,15.8,15.8,0,0,1,3.56.4c.59.13,1.15.34,1.72.52l.83.35a3.62,3.62,0,0,1,.4.19l.4.21c.26.15.53.28.78.45l.73.51a5.37,5.37,0,0,1,.7.56l.67.58-.72-.53a6.27,6.27,0,0,0-.73-.5l-.75-.47c-.25-.15-.52-.27-.78-.4a16.49,16.49,0,0,0-1.62-.7,14.35,14.35,0,0,0-1.7-.49,16.37,16.37,0,0,0-3.49-.46h-.89c-.29,0-.59,0-.88,0A15.22,15.22,0,0,0,205,226.45Z"/><path class="cls-5" d="M204.42,210.82a8.26,8.26,0,0,0,1.49,3.56,9.76,9.76,0,0,0,2.82,2.61,13.42,13.42,0,0,0,3.55,1.51,20.56,20.56,0,0,0,3.82.62,36,36,0,0,0,7.76-.37l1-.14,1-.17,1-.17,1-.21c.63-.14,1.28-.25,1.9-.42l1.9-.46a59.66,59.66,0,0,1-7.61,1.79l-1,.15c-.33,0-.65.08-1,.11l-1,.11-1,.06a28.49,28.49,0,0,1-3.92,0,21.16,21.16,0,0,1-3.87-.66,12.57,12.57,0,0,1-3.6-1.58,9.58,9.58,0,0,1-2.81-2.72,8.17,8.17,0,0,1-.91-1.73A7,7,0,0,1,204.42,210.82Z"/><path class="cls-5" d="M265.08,231.7a20.77,20.77,0,0,0,4.29,1.68c.37.09.74.2,1.11.27l1.13.23,1.14.16c.38.05.76.06,1.14.09a20.74,20.74,0,0,0,4.59-.18,19.56,19.56,0,0,0,2.26-.43,10.75,10.75,0,0,0,1.11-.31l1.11-.33-1.09.41a10.69,10.69,0,0,1-1.09.36,17.75,17.75,0,0,1-2.27.52,19.41,19.41,0,0,1-4.63.25,20.22,20.22,0,0,1-4.57-.83c-.38-.11-.74-.25-1.11-.37l-1.07-.43A16.71,16.71,0,0,1,265.08,231.7Z"/><path class="cls-5" d="M259.33,224.2c.17.81.37,1.6.61,2.38s.5,1.56.81,2.32a17,17,0,0,0,2.36,4.26A7.77,7.77,0,0,0,267,236a8.05,8.05,0,0,0,4.8-.27l-.58.21a5.09,5.09,0,0,1-.59.19l-.6.15-.61.09a6.7,6.7,0,0,1-2.48-.16,7.89,7.89,0,0,1-4-2.85,16.8,16.8,0,0,1-2.33-4.36A23.29,23.29,0,0,1,259.33,224.2Z"/><path class="cls-5" d="M285.25,263.56c0-.82-.1-1.65-.18-2.47s-.17-1.63-.28-2.45a46.37,46.37,0,0,0-.91-4.84,30.84,30.84,0,0,0-1.5-4.69,18.61,18.61,0,0,0-2.41-4.28,14.4,14.4,0,0,1,1.47,2,23,23,0,0,1,1.15,2.2,29.92,29.92,0,0,1,1.57,4.71,42.53,42.53,0,0,1,.84,4.88A37.31,37.31,0,0,1,285.25,263.56Z"/><rect class="cls-5" x="51.64" y="337.72" width="160.37" height="114.35" rx="3.02"/><path class="cls-5" d="M181.53,259.6v75.1a3,3,0,0,1-3,3H41.78a3,3,0,0,1-3-3V259.6a3,3,0,0,1,2-2.85,2.94,2.94,0,0,1,1-.16H178.62a2.89,2.89,0,0,1,.78.13A3,3,0,0,1,181.53,259.6Z"/><path class="cls-5" d="M190.1,196.42v57.31a3,3,0,0,1-3,3H73.77a3,3,0,0,1-3-3V196.42a3,3,0,0,1,2.84-3h113.5A3,3,0,0,1,190.1,196.42Z"/><rect class="cls-5" x="56.79" y="129.53" width="83.02" height="64.03" rx="3.02"/><path class="cls-3" d="M89.35,149.18h18a3.55,3.55,0,0,1,1.51.24,1.2,1.2,0,0,1,.65.76,15.46,15.46,0,0,1,.16,2.4,4.41,4.41,0,0,1-.16,1.34,1.09,1.09,0,0,1-.55.69,3.7,3.7,0,0,1-1.65.29H101.9v16.24a9.38,9.38,0,0,1-.05,1.1,2.8,2.8,0,0,1-.29.82,1.38,1.38,0,0,1-.86.67,12.94,12.94,0,0,1-2.41.19,12.75,12.75,0,0,1-2.4-.19,1.35,1.35,0,0,1-.83-.67,2.63,2.63,0,0,1-.3-.83,10.47,10.47,0,0,1,0-1.12V154.9H89.31a3.58,3.58,0,0,1-1.51-.24,1.2,1.2,0,0,1-.65-.76,4.53,4.53,0,0,1-.16-1.35,15.32,15.32,0,0,1,.16-2.39,1.12,1.12,0,0,1,.55-.69A3.7,3.7,0,0,1,89.35,149.18Z"/><path class="cls-3" d="M133.84,209.87l12.84,26.55a6.22,6.22,0,0,1,.81,2.43q0,1.71-2.76,3.09a6.26,6.26,0,0,1-2.54.81,2.54,2.54,0,0,1-1.53-.43,2.75,2.75,0,0,1-.85-.9c-.18-.32-.42-.79-.74-1.43l-2.47-5.14H123.42L120.94,240c-.32.64-.56,1.1-.74,1.38a3.3,3.3,0,0,1-.85.88,2.48,2.48,0,0,1-1.53.45,6.37,6.37,0,0,1-2.54-.8c-1.84-.89-2.76-1.91-2.76-3.05a6.22,6.22,0,0,1,.81-2.43l12.84-26.59A4.4,4.4,0,0,1,130,207.4,4,4,0,0,1,133.84,209.87ZM130,221.29l-3.14,6.52h6.33Z"/><path class="cls-3" d="M93.13,313.74a6.81,6.81,0,0,1-1.83-4.07q0-1.8,3-4.77a5.35,5.35,0,0,1,3.75-1.7c1.32,0,3.15,1.18,5.51,3.54a11.09,11.09,0,0,0,2.83,2.3,6.74,6.74,0,0,0,3.4,1.09c4.38,0,6.58-1.79,6.58-5.37A3.19,3.19,0,0,0,114.6,302a13.23,13.23,0,0,0-4.49-1.59,38.65,38.65,0,0,1-5.8-1.59,37.85,37.85,0,0,1-5.8-2.58A11.7,11.7,0,0,1,94,291.56a15.6,15.6,0,0,1-1.81-7.74A14.88,14.88,0,0,1,96.85,273q4.64-4.63,12.62-4.63a25.92,25.92,0,0,1,7.75,1.09,15.08,15.08,0,0,1,4.84,2.23l1.77,1.35c1.46,1.37,2.2,2.52,2.2,3.46a7.81,7.81,0,0,1-1.7,3.89q-2.42,3.54-5,3.54a7.21,7.21,0,0,1-3.68-1.42,7,7,0,0,1-.82-.7,9.71,9.71,0,0,0-1.09-.92,7.11,7.11,0,0,0-3.79-.92,6.39,6.39,0,0,0-3.82,1.09,3.57,3.57,0,0,0-1.52,3.05,3.62,3.62,0,0,0,1.81,3.14,11,11,0,0,0,4.49,1.63,52.19,52.19,0,0,1,5.87,1.31,36.47,36.47,0,0,1,5.87,2.16,10.36,10.36,0,0,1,4.49,4.42,15.39,15.39,0,0,1,1.81,7.74,17.22,17.22,0,0,1-1.84,8.1,14,14,0,0,1-4.81,5.41,22,22,0,0,1-12.24,3.75,23.77,23.77,0,0,1-6.29-.81,16.84,16.84,0,0,1-4.81-2,17.29,17.29,0,0,1-5.24-4.38Z"/><path class="cls-3" d="M134.74,394.85q13.94,13.39,19.77,20.14,3,3.36,3,5.69t-3.65,5.47q-3.65,3.14-6,3.14t-5.61-3.82l-20.05-22.88v17.77a26.91,26.91,0,0,1-.13,3.19,7.23,7.23,0,0,1-.87,2.37q-1.27,2.46-7.11,2.46-6.37,0-7.47-3.46a14.49,14.49,0,0,1-.54-4.65V369.61a27.15,27.15,0,0,1,.13-3.15,7.24,7.24,0,0,1,.87-2.41q1.28-2.46,7.11-2.46,6.38,0,7.56,3.37a18.32,18.32,0,0,1,.45,4.74v17.4q12.41-13.94,20.05-22.87,3.19-3.74,5.56-3.73c1.58,0,3.58,1,6,3.14s3.65,3.92,3.65,5.47-.91,3.38-2.73,5.51q-5.29,6.11-16.41,16.77Z"/><g class="cls-12"><path class="cls-5" d="M147.14,193.57l-76.39,3.17v-.32a3,3,0,0,1,2.84-3Z"/></g><g class="cls-12"><polygon class="cls-5" points="51.64 337.72 52.06 347.13 181.53 337.72 51.64 337.72"/></g><g class="cls-12"><path class="cls-5" d="M181.53,259.6a3,3,0,0,0-2.13-2.88,2.89,2.89,0,0,0-.78-.13l-94.51.15h0l-30.44-.14c4.75,3.94,21.55,8.25,21.55,8.25a3.27,3.27,0,0,0,.53,0,3.08,3.08,0,0,0,1.3-5.87l-1.88-.87,4.76,1.12a3.21,3.21,0,0,0,.81.1,3.71,3.71,0,0,0,3.16-2.14l97.63,4.67Z"/></g><g class="cls-12"><path class="cls-5" d="M121.36,450.5a.91.91,0,0,0-.94-.7l-26.93-2a2.34,2.34,0,0,1-2.19-2.32c0-.05,0-.09,0-.14a2.31,2.31,0,0,1,2.29-2.18l27.91-.29-31.65-3.39a2.36,2.36,0,0,1-2.12-2.68,2.41,2.41,0,0,1,2.38-2l31.07-.6-26.54-3.63a2.4,2.4,0,0,1-2.13-2.73,2.44,2.44,0,0,1,2.37-2l23-.08a52.39,52.39,0,0,1,5.6.3l9.31,1c-4-.86-8-3.77-7.87-12.06.07-3.76,14.51,6.88,14.51,6.88l4.13,3.57a23.32,23.32,0,0,0,13.79,5.6l4,.23,1.23,20.81H102.49c2-.12,5.18-.3,8.33-.51C116.08,451.2,121.35,450.78,121.36,450.5Z"/></g><polygon class="cls-6" points="160.47 457.93 158.55 425.32 217.46 424.07 213.9 458 160.47 457.93"/><path class="cls-7" d="M160.23,453.91l-1.52-25.84-4-.23a23.28,23.28,0,0,1-13.79-5.6l-4.13-3.57-4.59-7.62a3.93,3.93,0,0,0-7.28,1.6c-.35,3.36.67,7.38,5.23,11.2l-9.31-1a52.39,52.39,0,0,0-5.6-.3l-23,.08a2.44,2.44,0,0,0-2.37,2A2.4,2.4,0,0,0,92,427.4L118.55,431l-31.07.6a2.41,2.41,0,0,0-2.38,2,2.36,2.36,0,0,0,2.12,2.68l31.65,3.39L91,440a2.31,2.31,0,0,0-2.29,2.18h0a2.33,2.33,0,0,0,2.18,2.46l26.93,2a.91.91,0,0,1,.94.7h0c0,.56-21.08,1.69-21.08,1.69a2.39,2.39,0,0,0-2.32,2.06,2.35,2.35,0,0,0,2.19,2.63l18,1.07a24.09,24.09,0,0,0,5.56-.31l24.1-1.44Z"/><path class="cls-7" d="M65.21,224.32c6.75,1.4,16.3,4.45,23,11a3.08,3.08,0,0,1,.72,3.25h0a3.09,3.09,0,0,1-3.79,1.89L83.77,240l5.8,3.24a3.47,3.47,0,0,1,1.64,4h0a3.48,3.48,0,0,1-4.28,2.38l-7.07-2,2.2.89a3.53,3.53,0,0,1,2,4.39h0a3.53,3.53,0,0,1-4.16,2.32l-4.76-1.12,1.88.87a3.08,3.08,0,0,1,1.66,3.66h0a3.08,3.08,0,0,1-3.49,2.16l-18.5-3.23a8.73,8.73,0,0,1-6.25-10.81L55,230.52A8.74,8.74,0,0,1,65.21,224.32Z"/><path class="cls-8" d="M83.77,240c-.84-.39-1.67-.78-2.52-1.16l-2.54-1.13c-1.69-.74-3.39-1.47-5.11-2.15s-3.44-1.37-5.17-2l-1.31-.48-1.31-.45c-.87-.32-1.76-.58-2.63-.88,1.79.47,3.56,1,5.32,1.61s3.48,1.26,5.2,2,3.42,1.44,5.1,2.22S82.15,239.16,83.77,240Z"/><path class="cls-8" d="M79.86,247.7l-2.72-.79-2.72-.81L69,244.45l-5.41-1.67-2.71-.84-2.7-.86c1.83.47,3.65,1,5.47,1.5s3.62,1.07,5.44,1.61,3.61,1.12,5.4,1.7S78.08,247.07,79.86,247.7Z"/><path class="cls-8" d="M75.17,254.18c-1.43-.31-2.85-.65-4.28-1s-2.83-.72-4.25-1.08-2.84-.74-4.25-1.13l-2.11-.59c-.71-.21-1.41-.4-2.11-.62l2.14.49,2.14.51c1.42.35,2.83.72,4.25,1.08s2.84.75,4.25,1.14S73.77,253.76,75.17,254.18Z"/><g class="cls-12"><path class="cls-13" d="M290.1,452.93v7.58l-48.21-3.19S276.28,458.32,290.1,452.93Z"/></g><g class="cls-12"><path class="cls-13" d="M264.67,421.7l7.42-.88a7,7,0,0,1,6.4,2.7l5.12,6.68A24.38,24.38,0,0,0,264.67,421.7Z"/></g><g class="cls-12"><polygon class="cls-13" points="262.18 421.82 263.24 381.5 254.99 422.16 262.18 421.82"/></g><g class="cls-12"><path class="cls-13" d="M216.56,334.8l2.41-5.9a20.4,20.4,0,0,0,4.06,6.19L220.87,334a3.34,3.34,0,0,0-3.4.2Z"/></g><g class="cls-12"><polygon class="cls-13" points="179.68 458 179.59 459.93 226.79 456.69 179.68 458"/></g><polygon class="cls-13" points="212.01 424.19 218.59 423.81 225.16 423.46 238.33 422.81 251.5 422.22 258.08 421.94 264.67 421.7 258.09 422.08 251.5 422.43 238.34 423.08 225.18 423.67 218.59 423.94 212.01 424.19"/><path class="cls-13" d="M290.1,452.94a48.44,48.44,0,0,1-7.67,2.13c-2.61.52-5.24.91-7.88,1.23s-5.29.56-7.94.72-5.31.28-8,.35c-5.31.15-10.63.11-15.94,0s-10.62-.27-15.93-.59h0l-11.77.35-11.78.31-11.78.27-5.88.13-5.89.1v0l5.89-.21,5.89-.19,11.77-.36,11.78-.31,11.78-.28h0c5.29.37,10.6.58,15.91.7,2.66.07,5.31.07,8,0s5.31-.07,8-.16,5.31-.21,8-.4,5.29-.38,7.93-.68,5.26-.67,7.87-1.17a53.7,53.7,0,0,0,7.69-2Z"/><polygon class="cls-13" points="263.53 370.15 263.43 376.6 263.3 383.04 262.99 395.93 262.63 408.82 262.42 415.26 262.18 421.7 262.28 415.26 262.41 408.81 262.72 395.92 263.09 383.04 263.3 376.59 263.53 370.15"/><path class="cls-13" d="M291.06,335.68a31,31,0,0,0-4.39,1.47,40.64,40.64,0,0,0-4.16,2,42,42,0,0,0-13.79,12.06,47.1,47.1,0,0,0-4.67,8c.32-.71.62-1.42,1-2.11s.67-1.39,1.07-2.06l.57-1,.61-1c.4-.67.85-1.29,1.29-1.94a38.6,38.6,0,0,1,2.91-3.61,39.05,39.05,0,0,1,3.31-3.25,40.05,40.05,0,0,1,7.64-5.26A34.27,34.27,0,0,1,291.06,335.68Z"/><path class="cls-13" d="M285.52,432.77a20.19,20.19,0,0,0-1.88-2.43,27.9,27.9,0,0,0-2.16-2.19,25.31,25.31,0,0,0-5-3.53,23.31,23.31,0,0,0-2.78-1.28,24.88,24.88,0,0,0-2.93-.92,27.7,27.7,0,0,0-6.09-.72,24.4,24.4,0,0,1,3.08.06l.77.07.77.11.38.05.38.08.76.14a23,23,0,0,1,5.79,2.17,24.19,24.19,0,0,1,5,3.62A21.78,21.78,0,0,1,285.52,432.77Z"/><path class="cls-13" d="M279.07,415.41c-.62,0-1.24.1-1.86.18s-1.23.15-1.85.26a32.86,32.86,0,0,0-3.64.8,25.48,25.48,0,0,0-3.5,1.23l-.85.39c-.28.13-.55.3-.82.44-.56.27-1.06.65-1.6,1a16.81,16.81,0,0,1,3.18-2,22.87,22.87,0,0,1,3.52-1.31,28.88,28.88,0,0,1,3.68-.74A24.64,24.64,0,0,1,279.07,415.41Z"/><path class="cls-13" d="M254.63,345.86a8.57,8.57,0,0,1-1.29-.95,15.34,15.34,0,0,1-1.17-1.11,24.26,24.26,0,0,1-2-2.5,30.86,30.86,0,0,1-3-5.66,12.91,12.91,0,0,0-1.48-2.8,6.52,6.52,0,0,0-2.34-2.06,5.55,5.55,0,0,0-3.08-.52,7.93,7.93,0,0,0-3,1,7.69,7.69,0,0,1,3-1.09,5.69,5.69,0,0,1,3.17.46,6.63,6.63,0,0,1,2.45,2.1,13,13,0,0,1,1.53,2.84,33.35,33.35,0,0,0,3,5.63,22.62,22.62,0,0,0,1.94,2.53A13.76,13.76,0,0,0,254.63,345.86Z"/><path class="cls-13" d="M273.47,314.93c-1.52,2.61-3.07,5.2-4.62,7.79l-4.68,7.74-4.74,7.72L257,342l-2.41,3.84,2.3-3.91,2.32-3.88,4.68-7.75,4.74-7.71Q271.05,318.76,273.47,314.93Z"/><path class="cls-13" d="M213.35,343.33c.38-1.23.8-2.45,1.23-3.67s.89-2.42,1.35-3.63.95-2.4,1.45-3.59,1-2.37,1.59-3.54l-1.39,3.62-1.39,3.61-1.41,3.61-.71,1.8Z"/><path class="cls-13" d="M229.51,340.4a25,25,0,0,1-3.31-2.19,31.06,31.06,0,0,1-3-2.64,24.12,24.12,0,0,1-2.51-3.1A16.17,16.17,0,0,1,219,328.9a16.35,16.35,0,0,0,.88,1.78l.24.43.12.21.13.21.55.82a25.24,25.24,0,0,0,2.53,3,33.48,33.48,0,0,0,2.91,2.67c.51.42,1,.82,1.56,1.21S229,340,229.51,340.4Z"/><path class="cls-13" d="M230.84,423.3c.19-3.41.35-6.81.5-10.22s.3-6.81.43-10.22c.25-6.81.43-13.62.5-20.44s.11-13.64-.12-20.45c-.12-3.4-.29-6.81-.6-10.2-.16-1.7-.33-3.39-.59-5.08l-.2-1.26c-.07-.42-.16-.84-.25-1.25-.14-.84-.39-1.66-.61-2.49.23.83.49,1.64.65,2.48.08.42.18.83.26,1.25l.21,1.26c.28,1.68.49,3.38.66,5.07.33,3.4.52,6.81.65,10.21.26,6.82.29,13.64.22,20.46s-.32,13.64-.6,20.45c-.14,3.41-.3,6.81-.48,10.22S231.08,419.9,230.84,423.3Z"/><polygon class="cls-13" points="225.03 423.57 225.19 413.95 225.39 404.33 225.79 385.08 226.28 365.84 226.53 356.22 226.82 346.6 226.67 356.23 226.47 365.85 226.06 385.09 225.57 404.33 225.32 413.95 225.03 423.57"/><path class="cls-13" d="M216,318.09c-.25,1-.49,2.06-.7,3.11s-.42,2.08-.61,3.12c-.37,2.09-.69,4.19-.93,6.3s-.4,4.23-.49,6.35l0,1.59c0,.53,0,1.06,0,1.59,0,1.06.09,2.12.14,3.18A46.71,46.71,0,0,1,213,337c0-.53,0-1.06.05-1.59s0-1.07.09-1.6l.12-1.59.17-1.59c.26-2.11.58-4.22,1-6.31S215.36,320.12,216,318.09Z"/><rect class="cls-11" x="40.79" y="466.1" width="385.27" height="0.82"/></g></g></g></svg>